<?xml version="1.0" encoding="utf-8"?>
<!-- Generator: Adobe Illustrator 18.1.1, SVG Export Plug-In . SVG Version: 6.00 Build 0)  -->
<!DOCTYPE svg PUBLIC "-//W3C//DTD SVG 1.0//EN" "http://www.w3.org/TR/2001/REC-SVG-20010904/DTD/svg10.dtd">
<svg version="1.0" id="Ebene_1" xmlns="http://www.w3.org/2000/svg" xmlns:xlink="http://www.w3.org/1999/xlink" x="0px" y="0px"
	 viewBox="0 0 592.4 426.5" enable-background="new 0 0 592.4 426.5" xml:space="preserve">
<g>
	<g>
		<path fill="#FFFFFF" d="M145.1,356.4c0,8,1.4,13.2,3.9,16.7c3.3,4.3,8.3,6.6,15,6.6c7.4,0,14.4-2.1,21-5.1c1.4-0.6,2.7-1,4.1-1
			c4.9,0,9.5,4.1,9.5,9.1c0,3.7-1.6,7-5,8.7c-9.3,4.5-19.2,6.6-29.5,6.6c-11.3,0-21-3.7-28.2-10.9c-7-7-10.7-16.7-10.7-28.2v-24.5
			c0-11.3,3.7-21,10.7-28c7.2-7.2,16.9-10.9,28.2-10.9c11.5,0,21.2,3.7,28.2,10.9c7,7,10.9,16.7,10.9,28v9.1c0,7-5.6,12.6-12.6,12.6
			H145.1z M183,338c0-16.1-6.6-23.7-19-23.7c-12.2,0-18.8,7.4-18.8,23.7H183z"/>
		<path fill="#FFFFFF" d="M106.2,377.2v10.8c0,5.6-4.5,10.1-10.1,10.1c-5.6,0-9.9-4.5-9.9-10.1v-9.9v-39.3c0-16.1-6.6-23.7-19-23.7
			c-12.2,0-18.8,7.4-18.8,23.7v41.7v7.4c0,5.6-4.5,10.1-9.9,10.1c-5.6,0-10.1-4.5-10.1-10.1v-7.3v-45.2c0-11.3,3.7-21,10.7-28
			c7.2-7.2,16.9-10.9,28.2-10.9c11.5,0,21.2,3.7,28.2,10.9c7,7,10.9,16.7,10.9,28v9.1V377.2z"/>
		<path fill="#FFFFFF" d="M227.3,396.2c-6.2,0-11.3-5-11.3-11.3c0-2.3,0.6-4.5,2.3-6.8l47.8-61.4h-39.6c-5.6,0-9.9-4.1-9.9-9.5
			c0-5.4,4.3-9.5,9.9-9.5h55.3c6.2,0,11.3,5,11.3,11.3c0,2.3-0.6,4.7-1.9,6.4l-48.1,61.7h40.8c5.6,0,10.1,3.9,10.1,9.3
			c0,5.6-4.3,9.7-9.9,9.7H227.3z"/>
		<path fill="#FFFFFF" d="M384.8,381.2c0,5.4-3.5,10.1-8.5,11.8c-9.5,3.3-20.6,5-31.5,5c-11.8,0-21.2-2.9-27.8-8.5
			c-6.6-5.6-10.1-13.6-10.1-23.1c0-9.5,3.5-16.9,10.1-22.3c6.6-5.6,15.9-8.5,27.8-8.5h20v-6.8c0-8.2-6-14.6-16.1-14.6
			c-9.1,0-14.2,1.2-21,5.2c-1.6,1-3.7,1.7-5.4,1.7c-5.2,0-9.5-3.9-9.5-8.7c0-3.5,1.6-7,4.9-8.9c10.5-6,19.6-7.8,33.6-7.8
			c21.7,0,33.6,15.7,33.6,33V381.2z M364.8,354.1h-20c-16.9,0-17.9,9.1-17.9,12.4c0,3.5,1,13.2,17.9,13.2c6.6,0,13.8-1,20-2.5V354.1
			z"/>
		<path fill="#FFFFFF" d="M423.1,351.7c-10.5-3.9-18.6-12-18.6-26.6c0-17.1,14.2-29.3,33.6-29.3c13.2,0,20,1.9,26.4,4.9
			c3.9,1.6,6.4,5,6.4,9.1c0,5.1-4.1,9.3-9.3,9.3c-1.4,0-3.3-0.4-4.7-1c-4.9-2.3-12.8-3.9-19.2-3.9c-8,0-13.2,3.9-13.2,10.5
			c0,5,3.9,8.2,8,9.5l19,6.2c12.8,4.3,20.6,13,20.6,27.2c0,17.1-13.8,30.5-34.6,30.5c-11.5,0-20.8-2.1-28-5.4c-3.7-1.7-6-5-6-8.9
			c0-5,4.3-9.7,9.7-9.7c1.4,0,3.1,0.6,4.5,1.2c5.2,2.7,11.6,4.5,20.2,4.5c9.3,0,14.2-3.5,14.2-10.1c0-7.2-5.8-9.5-13-12L423.1,351.7
			z"/>
		<path fill="#FFFFFF" d="M564.1,381.2c0,5.4-3.5,10.1-8.5,11.8c-9.5,3.3-20.6,5-31.4,5c-11.8,0-21.2-2.9-27.8-8.5
			c-6.6-5.6-10.1-13.6-10.1-23.1c0-9.5,3.5-16.9,10.1-22.3c6.6-5.6,15.9-8.5,27.8-8.5h20v-6.8c0-8.2-6-14.6-16.1-14.6
			c-9.1,0-14.2,1.2-21,5.2c-1.6,1-3.7,1.7-5.4,1.7c-5.2,0-9.5-3.9-9.5-8.7c0-3.5,1.6-7,4.9-8.9c10.5-6,19.6-7.8,33.6-7.8
			c21.7,0,33.6,15.7,33.6,33V381.2z M544.1,354.1h-20c-16.9,0-17.9,9.1-17.9,12.4c0,3.5,1,13.2,17.9,13.2c6.6,0,13.8-1,20-2.5V354.1
			z"/>
	</g>
	<g>
		<g>
			<path fill="#FFFFFF" d="M213.1,117.7c0-49.3,40-89.3,89.3-89.3c49.3,0,89.3,40,89.3,89.3c0,67.7-89.3,134.1-89.3,134.1
				S213.1,185.4,213.1,117.7z M342.3,123.1v-9.1c0-11.3-3.9-21-10.9-28c-7-7.2-16.7-10.9-28.2-10.9c-11.3,0-21,3.7-28.2,10.9
				c-7,7-10.7,16.7-10.7,28v41.9v7.3c0,5.6,4.5,10.1,10.1,10.1c5.4,0,9.9-4.5,9.9-10.1v-7.4v-38.4c0-16.3,6.6-23.7,18.8-23.7
				c12.4,0,19,7.6,19,23.7v36v9.9c0,5.6,4.3,10.1,9.9,10.1c5.6,0,10.1-4.5,10.1-10.1v-10.8V123.1z"/>
		</g>
	</g>
</g>
</svg>
